REM DIRINDEX 1\2,1\3,1\4,1\6,1\5\7,1\5\8
REM DIRNAME cjc114,folder01,folder02,folder03,folder04,folder05,folder06,folder07
TITLE ""
FILE "DB4500_5th_4B_30.mp3" MP3
  TRACK 01 AUDIO
    TITLE "0:"
    INDEX 01 00:00:00
  TRACK 02 AUDIO
    TITLE "2:cjc114_2674"
    INDEX 01 00:00:01
  TRACK 03 AUDIO
    TITLE "0:"
    INDEX 01 00:01:07
  TRACK 04 AUDIO
    TITLE "3:cjc114_2675"
    INDEX 01 00:01:36
  TRACK 05 AUDIO
    TITLE "0:"
    INDEX 01 00:02:45
  TRACK 06 AUDIO
    TITLE "4:cjc114_2676"
    INDEX 01 00:02:71
  TRACK 07 AUDIO
    TITLE "0:"
    INDEX 01 00:06:26
  TRACK 08 AUDIO
    TITLE "2:cjc114_2677"
    INDEX 01 00:07:03
  TRACK 09 AUDIO
    TITLE "0:"
    INDEX 01 00:08:09
  TRACK 10 AUDIO
    TITLE "3:cjc114_2678"
    INDEX 01 00:08:38
  TRACK 11 AUDIO
    TITLE "0:"
    INDEX 01 00:09:59
  TRACK 12 AUDIO
    TITLE "4:cjc114_2679"
    INDEX 01 00:10:12
  TRACK 13 AUDIO
    TITLE "0:"
    INDEX 01 00:13:35
  TRACK 14 AUDIO
    TITLE "2:cjc114_2680"
    INDEX 01 00:14:13
  TRACK 15 AUDIO
    TITLE "0:"
    INDEX 01 00:15:25
  TRACK 16 AUDIO
    TITLE "3:cjc114_2681"
    INDEX 01 00:15:54
  TRACK 17 AUDIO
    TITLE "0:"
    INDEX 01 00:16:53
  TRACK 18 AUDIO
    TITLE "4:cjc114_2682"
    INDEX 01 00:17:10
  TRACK 19 AUDIO
    TITLE "0:"
    INDEX 01 00:20:71
  TRACK 20 AUDIO
    TITLE "2:cjc114_2683"
    INDEX 01 00:21:49
  TRACK 21 AUDIO
    TITLE "0:"
    INDEX 01 00:22:50
  TRACK 22 AUDIO
    TITLE "3:cjc114_2684"
    INDEX 01 00:23:04
  TRACK 23 AUDIO
    TITLE "0:"
    INDEX 01 00:24:55
  TRACK 24 AUDIO
    TITLE "4:cjc114_2685"
    INDEX 01 00:25:09
  TRACK 25 AUDIO
    TITLE "0:"
    INDEX 01 00:28:13
  TRACK 26 AUDIO
    TITLE "2:cjc114_2686"
    INDEX 01 00:28:66
  TRACK 27 AUDIO
    TITLE "0:"
    INDEX 01 00:29:66
  TRACK 28 AUDIO
    TITLE "3:cjc114_2687"
    INDEX 01 00:30:18
  TRACK 29 AUDIO
    TITLE "0:"
    INDEX 01 00:31:53
  TRACK 30 AUDIO
    TITLE "4:cjc114_2688"
    INDEX 01 00:32:05
  TRACK 31 AUDIO
    TITLE "0:"
    INDEX 01 00:34:65
  TRACK 32 AUDIO
    TITLE "2:cjc114_2689"
    INDEX 01 00:35:43
  TRACK 33 AUDIO
    TITLE "0:"
    INDEX 01 00:36:70
  TRACK 34 AUDIO
    TITLE "3:cjc114_2690"
    INDEX 01 00:37:24
  TRACK 35 AUDIO
    TITLE "0:"
    INDEX 01 00:38:49
  TRACK 36 AUDIO
    TITLE "4:cjc114_2691"
    INDEX 01 00:39:03
  TRACK 37 AUDIO
    TITLE "0:"
    INDEX 01 00:41:71
  TRACK 38 AUDIO
    TITLE "2:cjc114_2692"
    INDEX 01 00:42:49
  TRACK 39 AUDIO
    TITLE "0:"
    INDEX 01 00:45:35
  TRACK 40 AUDIO
    TITLE "3:cjc114_2693"
    INDEX 01 00:45:63
  TRACK 41 AUDIO
    TITLE "0:"
    INDEX 01 00:47:28
  TRACK 42 AUDIO
    TITLE "4:cjc114_2694"
    INDEX 01 00:47:54
  TRACK 43 AUDIO
    TITLE "0:"
    INDEX 01 00:53:53
  TRACK 44 AUDIO
    TITLE "2:cjc114_2695"
    INDEX 01 00:54:30
  TRACK 45 AUDIO
    TITLE "0:"
    INDEX 01 00:55:34
  TRACK 46 AUDIO
    TITLE "3:cjc114_2696"
    INDEX 01 00:55:67
  TRACK 47 AUDIO
    TITLE "0:"
    INDEX 01 00:57:25
  TRACK 48 AUDIO
    TITLE "4:cjc114_2697"
    INDEX 01 00:57:54
  TRACK 49 AUDIO
    TITLE "0:"
    INDEX 01 01:02:10
  TRACK 50 AUDIO
    TITLE "2:cjc114_2698"
    INDEX 01 01:02:63
  TRACK 51 AUDIO
    TITLE "0:"
    INDEX 01 01:03:65
  TRACK 52 AUDIO
    TITLE "3:cjc114_2699"
    INDEX 01 01:04:19
  TRACK 53 AUDIO
    TITLE "0:"
    INDEX 01 01:05:68
  TRACK 54 AUDIO
    TITLE "4:cjc114_2700"
    INDEX 01 01:06:22
  TRACK 55 AUDIO
    TITLE "0:"
    INDEX 01 01:09:54
  TRACK 56 AUDIO
    TITLE "2:cjc114_2701"
    INDEX 01 01:10:31
  TRACK 57 AUDIO
    TITLE "0:"
    INDEX 01 01:11:39
  TRACK 58 AUDIO
    TITLE "3:cjc114_2702"
    INDEX 01 01:11:70
  TRACK 59 AUDIO
    TITLE "0:"
    INDEX 01 01:13:36
  TRACK 60 AUDIO
    TITLE "4:cjc114_2703"
    INDEX 01 01:13:63
  TRACK 61 AUDIO
    TITLE "0:"
    INDEX 01 01:17:06
  TRACK 62 AUDIO
    TITLE "2:cjc114_2704"
    INDEX 01 01:17:59
  TRACK 63 AUDIO
    TITLE "0:"
    INDEX 01 01:18:66
  TRACK 64 AUDIO
    TITLE "3:cjc114_2705"
    INDEX 01 01:19:21
  TRACK 65 AUDIO
    TITLE "0:"
    INDEX 01 01:20:38
  TRACK 66 AUDIO
    TITLE "4:cjc114_2706"
    INDEX 01 01:20:63
  TRACK 67 AUDIO
    TITLE "0:"
    INDEX 01 01:24:32
  TRACK 68 AUDIO
    TITLE "2:cjc114_2707"
    INDEX 01 01:25:08
  TRACK 69 AUDIO
    TITLE "0:"
    INDEX 01 01:26:19
  TRACK 70 AUDIO
    TITLE "3:cjc114_2708"
    INDEX 01 01:26:46
  TRACK 71 AUDIO
    TITLE "0:"
    INDEX 01 01:27:48
  TRACK 72 AUDIO
    TITLE "4:cjc114_2709"
    INDEX 01 01:28:00
  TRACK 73 AUDIO
    TITLE "0:"
    INDEX 01 01:30:17
  TRACK 74 AUDIO
    TITLE "2:cjc114_2710"
    INDEX 01 01:30:69
  TRACK 75 AUDIO
    TITLE "0:"
    INDEX 01 01:32:00
  TRACK 76 AUDIO
    TITLE "3:cjc114_2711"
    INDEX 01 01:32:29
  TRACK 77 AUDIO
    TITLE "0:"
    INDEX 01 01:33:56
  TRACK 78 AUDIO
    TITLE "4:cjc114_2712"
    INDEX 01 01:34:08
  TRACK 79 AUDIO
    TITLE "0:"
    INDEX 01 01:37:38
